# xmcd
#
# Track frame offsets: 
#        150
#        14559
#        32156
#        45106
#        59916
#        76830
#        90075
#        103288
#        116559
#        127772
#        140670
#        156387
#        175688
#        197217
#        215875
#
# Disc length: 3202 seconds
#
# Revision: 3
# Processed by: cddbd v1.5.2PL0 Copyright (c) Steve Scherf et al.
# Submitted via: ExactAudioCopy v1.0b3
#
DISCID=cf0c800f
DTITLE=Fleetwood Mac - Black Magic Woman - The Best Of [Disc 2]
DYEAR=2009
DGENRE=Blues
TTITLE0=Albatross
TTITLE1=Need Your Love So Bad
TTITLE2=Dust My Broom
TTITLE3=Cold Black Night
TTITLE4=Doctor Brown
TTITLE5=I Loved Another Woman
TTITLE6=I Believe My Time Ain't Long
TTITLE7=Shake Your Moneymaker
TTITLE8=The World Keep On Turning
TTITLE9=Looking For Somebody
TTITLE10=Talk With You
TTITLE11=I've Lost My Baby
TTITLE12=Trying So Hard To Forget
TTITLE13=Merry Go Round
TTITLE14=Worried Dream
EXTD=YEAR: 2009
EXTT0=
EXTT1=
EXTT2=
EXTT3=
EXTT4=
EXTT5=
EXTT6=
EXTT7=
EXTT8=
EXTT9=
EXTT10=
EXTT11=
EXTT12=
EXTT13=
EXTT14=
PLAYORDER=
